<svg width="26" height="26" viewBox="0 0 26 26" fill="none" xmlns="http://www.w3.org/2000/svg">
<path fill-rule="evenodd" clip-rule="evenodd" d="M13 26C20.1797 26 26 20.1797 26 13C26 5.82031 20.1797 0 13 0C5.82031 0 0 5.82031 0 13C0 20.1797 5.82031 26 13 26ZM11 7C11 5.89539 11.8954 5 13 5C14.1046 5 15 5.89539 15 7V11H19C20.1046 11 21 11.8954 21 13C21 14.1046 20.1046 15 19 15H15V19C15 20.1046 14.1046 21 13 21C11.8954 21 11 20.1046 11 19V15H7C5.89542 15 5 14.1046 5 13C5 11.8954 5.89542 11 7 11H11V7Z" fill="white" fill-opacity="0.4"/>
</svg>
