<svg width="14" height="10" viewBox="0 0 14 10" fill="none" xmlns="http://www.w3.org/2000/svg">
<path opacity="0.4" d="M13.9068 4.07937L12.3685 0.904762C12.1043 0.349206 11.5605 0 10.939 0H3.0455C2.42397 0 1.89567 0.333333 1.61598 0.904762L0.0776915 4.06349C0.0310766 4.15873 0 4.26984 0 4.36508V8.63492C0 9.38095 0.590455 10 1.33629 10H12.6637C13.394 10 14 9.39682 14 8.63492V4.38095C13.9845 4.26984 13.9534 4.15873 13.9068 4.07937ZM9.69589 3.69841C9.38513 3.69841 9.12098 3.92064 9.04329 4.2381C9.02775 4.30159 8.67037 6 6.97669 6C5.32963 6 4.95671 4.42857 4.9101 4.2381C4.84795 3.92064 4.5838 3.69841 4.25749 3.69841H1.74029L2.81243 1.50794C2.85905 1.42857 2.95228 1.34921 3.0455 1.34921H10.939C11.0322 1.34921 11.1254 1.39683 11.172 1.50794L12.2286 3.69841H9.69589Z" fill="white"/>
</svg>
